<?xml version="1.0" encoding="UTF-8" standalone="no"?>
<!-- Created with Inkscape (http://www.inkscape.org/) -->

<svg
   version="1.1"
   id="svg2"
   xml:space="preserve"
   width="1062.6533"
   height="987.25336"
   viewBox="0 0 1062.6533 987.25336"
   sodipodi:docname="capes.svg"
   inkscape:version="1.1.2 (0a00cf5339, 2022-02-04)"
   xmlns:inkscape="http://www.inkscape.org/namespaces/inkscape"
   xmlns:sodipodi="http://sodipodi.sourceforge.net/DTD/sodipodi-0.dtd"
   xmlns="http://www.w3.org/2000/svg"
   xmlns:svg="http://www.w3.org/2000/svg"><defs
     id="defs6" /><sodipodi:namedview
     id="namedview4"
     pagecolor="#ffffff"
     bordercolor="#666666"
     borderopacity="1.0"
     inkscape:pageshadow="2"
     inkscape:pageopacity="0.0"
     inkscape:pagecheckerboard="0"
     showgrid="false"
     inkscape:zoom="0.85489707"
     inkscape:cx="531.64295"
     inkscape:cy="494.21154"
     inkscape:window-width="1858"
     inkscape:window-height="1016"
     inkscape:window-x="62"
     inkscape:window-y="27"
     inkscape:window-maximized="1"
     inkscape:current-layer="g8" /><g
     id="g8"
     inkscape:groupmode="layer"
     inkscape:label="ink_ext_XXXXXX"
     transform="matrix(1.3333333,0,0,-1.3333333,0,987.25333)"><g
       id="g10"
       transform="scale(0.1)"><path
         d="m 4631.88,4294.13 v -0.04 h -0.3 c -0.01,-183.57 -74.23,-349.56 -194.2,-469.53 -119.97,-119.96 -285.93,-194.16 -469.47,-194.17 v -0.32 h -0.1 -0.05 v 0.32 c -183.56,0 -349.53,74.21 -469.51,194.19 -119.96,119.97 -194.18,285.94 -194.19,469.46 h -0.31 v 0.09 0.04 h 0.31 c 0.01,183.58 74.24,349.56 194.22,469.54 119.95,119.96 285.91,194.16 469.45,194.18 v 0.32 h 0.08 0.04 v -0.32 c 183.57,0 349.58,-74.24 469.55,-194.2 119.97,-119.97 194.17,-285.94 194.18,-469.48 h 0.3 v -0.08"
         style="fill:#00a650;fill-opacity:1;fill-rule:evenodd;stroke:none"
         id="path12" /><path
         d="m 5845.46,2471.45 c -283.61,-96.5 -619.23,-190.34 -1016.12,-260.63 -395.4,-70.05 -852.14,-116.67 -1379.56,-118.95 h -0.33 l -8.09,-0.01 c -114.55,-0.31 -222.78,3.43 -324.63,10.42 -102.62,7.06 -201.34,17.53 -295.55,30.64 -482.25,67.17 -826.75,203.55 -988.14,302.88 l -0.22,0.13 c -62.3,38.36 -120.09,78.04 -173.61,118.85 -53.78,41.01 -102.83,82.8 -147.48,125.19 -219.15,207.93 -338.68,434.11 -395.15,654.87 -296.053,119.14 -526.517,249.99 -700.6,398.99 -186.765,159.86 -308.468,339.86 -375.9409,547.4 v 0.11 l -0.043,-0.02 C 16.9883,4352.15 4.48047,4422.44 0.996094,4491.7 -2.44531,4560.42 3.12109,4627.91 16.2148,4693.68 81.5234,5021.36 335.063,5302.36 584.441,5482.45 l 0.008,-0.02 0.102,0.11 c 36.617,26.43 78.613,54.13 125.101,82.27 44.973,27.24 96.254,56.02 153.243,85.73 284.035,148.05 679.655,298.55 1085.495,354.09 143.44,19.63 285.27,33.14 424.49,41.66 130.2,7.98 260.36,11.67 389.1,12.05 160.09,106.78 322.56,205.79 486.13,297.52 170.11,95.41 341.1,182.81 511.54,262.74 865.1,405.78 1721.75,623.22 2382.88,726.86 7.65,7.14 15.15,13.21 22.44,18.25 41.31,28.56 91.6,40.65 136.1,40.65 h 0.04 v -0.33 c 60.56,-0.01 115.14,-25.6 154.49,-66.88 39.3,-41.17 63.55,-98.03 63.59,-160.7 h 0.32 v -0.09 -0.04 h -0.32 c -0.01,-62.69 -24.25,-119.59 -63.59,-160.78 -39.36,-41.24 -93.93,-66.82 -154.42,-66.86 v -0.32 h -0.11 -0.07 v 0.32 c -32.8,0.02 -63.7,7.44 -91.2,20.68 -6.94,3.35 -13.52,6.94 -19.68,10.75 -16.42,10.17 -31.45,22.51 -44.75,36.68 -133.09,-16.34 -267.86,-37.2 -403.88,-62.45 -152.03,-28.21 -302.57,-61.23 -450.89,-98.81 -687.66,-174.24 -1371.26,-453.18 -1984.31,-814.74 55.22,-3.83 108.97,-8.14 161.26,-12.88 120.61,-10.93 239.17,-24.68 353.39,-40.05 19.63,14.13 41.91,27.35 66.37,39.67 34.41,17.33 73.91,33.14 116.68,47.54 207.82,69.96 497.08,105.32 643.66,119.29 367.28,35.02 659.09,48.52 924.93,35.98 268.58,-12.68 509.72,-51.53 773.2,-121.09 l 1.21,-0.32 h 0.33 c 184.15,-48.69 349.95,-107.89 498.93,-174.99 149.1,-67.12 279.76,-141.71 393.94,-221.18 598.25,-416.54 754.6,-973.29 726.64,-1313.02 l -0.04,-0.41 c -4.59,-55.66 -12.57,-114.63 -24.59,-176.56 -11.82,-60.86 -27.38,-122.49 -47.3,-184.11 -103.08,-318.89 -324.32,-651.55 -754.45,-905.94 -46.51,-27.53 -91.22,-52.31 -134.48,-74.71 -40.2,-20.84 -82.65,-41.39 -127.27,-61.83 -34.95,-27.43 -73.06,-55.2 -113.97,-83.17 -42.34,-28.96 -86.72,-57.26 -132.77,-84.92 -234.99,-141.03 -513.13,-263.63 -786.5,-356.64 z M 2297.62,5710.61 c -91.82,-6.41 -184.92,-14.03 -278.73,-23.14 l -0.37,-0.02 c -60.42,-5.89 -124.48,-15.14 -190.96,-27.62 -67.04,-12.58 -136.36,-28.39 -206.75,-47.21 C 1258.95,5515.77 866.77,5338.73 604.746,5104.31 541.641,5047.83 473.883,4972.64 418.793,4884.09 355.117,4781.72 308.656,4661.72 307.605,4533.49 306.57,4406.2 350.73,4267.77 468.18,4125.7 c 69.656,-84.26 164.75,-169.57 290.812,-254.45 65.867,-44.35 133.946,-86.79 207.297,-128.2 v -0.34 c 35.831,-20.22 72.381,-39.84 109.961,-58.92 0.34,40.57 2.32,80.41 5.68,119.34 18.2,211.51 76.37,394.63 130.73,522.44 h 0.02 l 0.03,0.11 c 42.45,99.74 92.99,198.61 149.41,295.51 55.7,95.66 116.47,188.09 180.34,276.59 242.68,336.38 532.8,621.35 755.16,812.83 z m 4725.09,-1805.3 c 13.36,-146.2 -15.27,-271.6 -71.77,-380.42 -56.18,-108.3 -140.7,-201.87 -239.6,-284.15 -132.62,-55.6 -269.87,-95.88 -407.3,-126.98 -144.03,-32.54 -285.44,-54.6 -421.5,-73.35 -364.32,-50.25 -705.39,-71.9 -1021.14,-74.43 -316.16,-2.5 -607.67,14.13 -872.29,40.49 -440.11,43.85 -806.75,114.88 -1088.5,169.47 -53.24,10.32 -103.14,19.99 -162.65,31.1 l -0.64,0.33 -0.19,0.05 -0.05,-0.2 c -321.92,60.13 -589.31,117.82 -817.68,176.62 -205.45,52.87 -377.69,106.33 -528.4,162.97 -16.28,134.66 -7.75,252.69 5.4,334.56 2.96,18.45 5.91,34.08 8.7,46.95 2.75,12.67 5.63,24.04 8.4,33.79 l 0.07,-0.02 0.02,0.11 v 0.33 c 126.02,443.8 392.99,841.47 713.19,1175.59 62.96,65.68 127.55,128.56 193.18,188.53 64.32,58.75 132.01,116.65 202.18,173.35 l 0.09,0.09 v -0.01 c 76.6,61.87 154.65,121.74 233.26,179.17 21.78,15.93 37.33,27.22 46.63,33.89 10.47,7.51 19.51,13.96 27.15,19.41 331.26,2.33 572.88,-19.38 769.01,-37.01 l 23.65,-2.13 h 0.31 c 761.25,-68.24 1330.19,-214.6 1666.05,-322.66 65.29,-21.02 121.51,-40.48 168.41,-57.57 45.01,-16.39 83.3,-31.39 113.17,-43.58 v 0 l 0.09,-0.04 c 695.1,-284.13 1129.06,-689.97 1329.11,-1029.87 37.7,-64.07 66.8,-125.4 87.49,-182.69 19.98,-55.29 31.95,-106.14 36.1,-151.33 l 0.05,-0.36 z m -4451.93,-1420.44 2.4,-0.48 c 86.06,-17.51 177.13,-32.44 272.89,-44.68 97.07,-12.41 196.94,-21.82 299.17,-28.17 535.01,-33.18 1174.12,12.22 1875.33,156.59 v 0.05 l 0.16,0.04 h 0.33 c 67.75,13.96 131.68,28.06 191.5,42.18 58.36,13.77 121.39,29.7 188.43,47.53 12.73,3.38 25.41,6.81 38.06,10.27 -104.83,-6.84 -205.17,-11.02 -299.47,-14.01 l -1.12,-0.03 c -166.12,-5.23 -337.58,-3.57 -511.22,3.51 -172.91,7.04 -348.92,19.65 -524.57,36.26 -899.44,85.2 -1776.36,276.87 -2190.32,385.25 -108.63,28.44 -210.89,56.78 -307.03,85.42 -39.05,11.63 -77.62,23.5 -115.77,35.62 20.57,-43.55 44.63,-86.88 72.7,-129.36 162.94,-246.56 464.82,-474.96 1008.53,-585.99 z m 4948.89,1461.99 0.04,0.07 0.3,0.32 c 20.67,35.41 41.82,76.93 61.94,124.29 19.96,47.01 37.87,97.6 51.8,150.63 72.53,276.48 49.76,650.55 -317.31,1022.92 l -1.18,1.18 c -69.66,70.56 -144.88,135.39 -225.02,194.68 -79.68,58.95 -165.08,112.83 -255.43,161.75 -465.17,251.87 -1045,359.17 -1649.39,348.07 v -0.02 l -2.53,-0.05 v 0 c -10.6,-0.3 -39.86,-1.67 -84.57,-4.19 -40.18,-2.27 -94.67,-5.72 -161.01,-10.54 -162.07,-11.79 -376.83,-28.38 -535.98,-43.87 266.13,-49.3 512.52,-103.24 753.85,-174.42 327.47,-96.6 645.46,-224.89 990.19,-416.19 50.25,-27.87 98.31,-55.83 144.27,-83.83 555.57,-338.36 833.32,-699.01 948.29,-1023.81 72.13,-203.73 80.57,-393.71 52.92,-556.46 6.42,6.86 12.78,13.78 19.15,20.81 75.73,83.89 146.11,179.47 209.77,288.61 l -0.1,0.05 v 0"
         style="fill:#0994dc;fill-opacity:1;fill-rule:evenodd;stroke:none"
         id="path14" /><path
         d="M 1656.01,430.621 C 1461.56,337.359 1342.5,281.789 1165.87,281.789 c -281.784,0 -482.182,172.641 -482.182,414.781 0,240.078 202.39,410.74 490.112,410.74 166.71,0 317.51,-55.56 466.32,-138.9 v 301.63 C 1507.18,1349.42 1338.52,1389.1 1150,1389.1 632.086,1389.1 336.41,1051.75 336.41,690.609 336.41,341.32 598.324,0 1124.21,0 c 200.43,0 343.29,37.7109 531.8,134.941 v 295.68"
         style="fill:#0994dc;fill-opacity:1;fill-rule:evenodd;stroke:none"
         id="path16" /><path
         d="M 2985.28,504.039 H 2568.53 L 2767,1029.9 Z M 2957.5,1353.35 H 2566.56 L 2020.87,0 h 357.19 l 101.19,267.891 H 3084.5 L 3195.63,0 h 363.12 L 2957.5,1353.35 v 0"
         style="fill:#0994dc;fill-opacity:1;fill-rule:evenodd;stroke:none"
         id="path18" /><path
         d="m 4208.5,1105.3 h 119.05 c 182.58,0 248.05,-41.67 248.05,-156.749 0,-101.231 -55.57,-156.781 -210.35,-156.781 H 4208.5 Z m -337.33,248.05 V 0 h 337.33 v 543.73 h 267.91 c 311.52,0 446.46,218.282 446.46,408.77 0,184.55 -138.91,400.85 -448.47,400.85 h -603.23 v 0"
         style="fill:#0994dc;fill-opacity:1;fill-rule:evenodd;stroke:none"
         id="path20" /><path
         d="m 6256.42,248.051 h -660.8 v 325.441 h 617.13 V 821.531 H 5595.62 V 1105.3 h 646.91 v 248.05 H 5258.3 V 0 h 998.12 v 248.051"
         style="fill:#0994dc;fill-opacity:1;fill-rule:evenodd;stroke:none"
         id="path22" /><path
         d="m 7571.98,1283.94 c -170.66,73.39 -307.58,105.16 -458.39,105.16 -313.54,0 -515.93,-154.79 -515.93,-388.95 0,-486.181 688.57,-404.83 688.57,-627.091 0,-79.36 -69.47,-125 -198.44,-125 -148.85,0 -267.91,45.64 -462.37,174.613 V 130.969 C 6760.36,61.5391 6877.44,0 7113.59,0 c 301.63,0 519.9,150.82 519.9,410.789 0,472.281 -688.57,414.742 -688.57,619.131 0,67.47 77.39,111.13 198.41,111.13 115.11,0 232.19,-33.74 428.65,-121.05 v 263.94"
         style="fill:#0994dc;fill-opacity:1;fill-rule:evenodd;stroke:none"
         id="path24" /></g></g></svg>
